<?xml version="1.0" encoding="iso-8859-1"?>
<!-- Generator: Adobe Illustrator 19.0.0, SVG Export Plug-In . SVG Version: 6.00 Build 0)  -->
<svg xmlns="http://www.w3.org/2000/svg" xmlns:xlink="http://www.w3.org/1999/xlink" version="1.1" id="Capa_1" x="0px" y="0px" viewBox="0 0 368 368" style="enable-background:new 0 0 368 368;" xml:space="preserve" width="512px" height="512px">
<g>
	<g>
		<path d="M136,256h-24v-24c0-4.416-3.584-8-8-8s-8,3.584-8,8v24H72c-4.416,0-8,3.584-8,8c0,4.416,3.584,8,8,8h24v24    c0,4.416,3.584,8,8,8s8-3.584,8-8v-24h24c4.416,0,8-3.584,8-8C144,259.584,140.416,256,136,256z" fill="#006DF0"/>
	</g>
</g>
<g>
	<g>
		<path d="M296,256h-64c-4.416,0-8,3.584-8,8c0,4.416,3.584,8,8,8h64c4.416,0,8-3.584,8-8C304,259.584,300.416,256,296,256z" fill="#006DF0"/>
	</g>
</g>
<g>
	<g>
		<path d="M336,64.808V16c0-8.824-7.176-16-16-16h-48c-8.824,0-16,7.176-16,16v48H112V16c0-8.824-7.176-16-16-16H48    c-8.824,0-16,7.176-16,16v48.816C13.768,68.528,0,84.68,0,104v224c0,22.056,17.944,40,40,40h288c22.056,0,40-17.944,40-40V104    C368,84.688,354.232,68.528,336,64.808z M272,16l48-0.008V64h-48V16z M48,16l48-0.008V64H48V16z M352,328    c0,13.232-10.768,24-24,24H40c-13.232,0-24-10.768-24-24V176h336V328z M352,160H16v-56c0-13.232,10.768-24,24-24h64h160h64    c13.232,0,24,10.768,24,24V160z" fill="#006DF0"/>
	</g>
</g>
<g>
</g>
<g>
</g>
<g>
</g>
<g>
</g>
<g>
</g>
<g>
</g>
<g>
</g>
<g>
</g>
<g>
</g>
<g>
</g>
<g>
</g>
<g>
</g>
<g>
</g>
<g>
</g>
<g>
</g>
</svg>
