<?xml version="1.0" encoding="iso-8859-1"?>
<!-- Generator: Adobe Illustrator 19.0.0, SVG Export Plug-In . SVG Version: 6.00 Build 0)  -->
<svg xmlns="http://www.w3.org/2000/svg" xmlns:xlink="http://www.w3.org/1999/xlink" version="1.1" id="Capa_1" x="0px" y="0px" viewBox="0 0 512 512" style="enable-background:new 0 0 512 512;" xml:space="preserve" width="512px" height="512px">
<g>
	<g>
		<path d="M482,316.41c0,14.061-11.439,25.5-25.5,25.5c-14.061,0-25.5-11.439-25.5-25.5h-30c0,13.785-11.215,25-25,25    c-13.785,0-25-11.215-25-25h-30c0,13.785-11.215,25-25,25c-13.785,0-25-11.215-25-25h-30c0,13.785-11.215,25-25,25    c-13.785,0-25-11.215-25-25h-30c0,13.785-11.215,25-25,25c-13.785,0-25-11.215-25-25H81c0,14.061-11.439,25.5-25.5,25.5    S30,330.471,30,316.41H0v104h512v-104H482z" fill="#006DF0"/>
	</g>
</g>
<g>
	<g>
		<path d="M119.697,208.637l11.943-11.942c17.544-17.546,17.544-46.094,0-63.64l-28.284-28.284c-8.5-8.499-19.8-13.181-31.82-13.181    c-12.02,0-23.32,4.681-31.82,13.181l-38.891,38.89l28.284,28.284l-17.677,17.678l21.213,21.213l17.677-17.677l18.107,18.107    l-20.922,1.073l16.46,74.071h378.001c18.114-21.694,29.032-49.594,29.032-80v-15.789L119.697,208.637z" fill="#006DF0"/>
	</g>
</g>
<g>
	<g>
		<polygon points="366.704,113.432 257.162,152.093 258.653,171.471 386.757,164.902   " fill="#006DF0"/>
	</g>
</g>
<g>
</g>
<g>
</g>
<g>
</g>
<g>
</g>
<g>
</g>
<g>
</g>
<g>
</g>
<g>
</g>
<g>
</g>
<g>
</g>
<g>
</g>
<g>
</g>
<g>
</g>
<g>
</g>
<g>
</g>
</svg>
