<?xml version="1.0"?>
<svg xmlns="http://www.w3.org/2000/svg" height="512px" viewBox="0 0 402.77333 402.77333" width="512px"><path d="m202.195312 341.5625c-75.410156 0-136.761718-61.351562-136.761718-136.761719 0-75.410156 61.351562-136.765625 136.761718-136.765625 75.414063 0 136.765626 61.355469 136.765626 136.765625 0 75.410157-61.355469 136.761719-136.765626 136.761719zm0-259.871094c-67.878906 0-123.109374 55.222656-123.109374 123.109375 0 67.882813 55.226562 123.109375 123.109374 123.109375 67.882813 0 123.113282-55.226562 123.113282-123.109375 0-67.886719-55.230469-123.109375-123.113282-123.109375zm0 0" fill="#006DF0"/><path d="m202.195312 368.277344c-90.140624 0-163.472656-73.339844-163.472656-163.476563 0-90.140625 73.332032-163.476562 163.472656-163.476562 90.136719 0 163.476563 73.335937 163.476563 163.476562 0 90.136719-73.339844 163.476563-163.476563 163.476563zm0-313.300782c-82.613281 0-149.820312 67.210938-149.820312 149.824219s67.207031 149.824219 149.820312 149.824219c82.613282 0 149.824219-67.210938 149.824219-149.824219s-67.210937-149.824219-149.824219-149.824219zm0 286.585938c-75.410156 0-136.761718-61.351562-136.761718-136.761719 0-75.410156 61.351562-136.765625 136.761718-136.765625 75.414063 0 136.765626 61.355469 136.765626 136.765625 0 75.410157-61.355469 136.761719-136.765626 136.761719zm0-259.871094c-67.878906 0-123.109374 55.222656-123.109374 123.109375 0 67.882813 55.226562 123.109375 123.109374 123.109375 67.882813 0 123.113282-55.226562 123.113282-123.109375 0-67.886719-55.230469-123.109375-123.113282-123.109375zm0 0" fill="#006DF0"/><path d="m345.007812 352.078125c-1.714843 0-3.429687-.640625-4.753906-1.929687l-104.8125-101.625c-2.707031-2.625-2.773437-6.945313-.148437-9.652344 2.632812-2.710938 6.945312-2.769532 9.652343-.148438l104.8125 101.628906c2.707032 2.621094 2.773438 6.945313.148438 9.652344-1.339844 1.378906-3.121094 2.074219-4.898438 2.074219zm0 0" fill="#006DF0"/><path d="m163.726562 176.3125c-1.710937 0-3.425781-.640625-4.753906-1.929688l-112.785156-109.355468c-2.707031-2.625-2.773438-6.945313-.148438-9.652344 2.632813-2.707031 6.953126-2.769531 9.652344-.148438l112.789063 109.359376c2.703125 2.621093 2.773437 6.945312.144531 9.652343-1.335938 1.378907-3.117188 2.074219-4.898438 2.074219zm0 0" fill="#006DF0"/><path d="m235.121094 173.496094c-1.78125 0-3.5625-.691406-4.898438-2.074219-2.628906-2.707031-2.5625-7.027344.144532-9.652344l109.886718-106.542969c2.707032-2.625 7.027344-2.558593 9.652344.144532 2.628906 2.707031 2.5625 7.03125-.144531 9.65625l-109.886719 106.542968c-1.328125 1.285157-3.039062 1.925782-4.753906 1.925782zm0 0" fill="#006DF0"/><path d="m50.941406 352.078125c-1.78125 0-3.5625-.695313-4.902344-2.074219-2.625-2.707031-2.558593-7.03125.148438-9.652344l107.71875-104.441406c2.699219-2.621094 7.019531-2.5625 9.652344.148438 2.628906 2.707031 2.5625 7.027344-.144532 9.652344l-107.71875 104.4375c-1.328124 1.289062-3.042968 1.929687-4.753906 1.929687zm0 0" fill="#006DF0"/><path d="m395.945312 211.625h-140.890624c-3.773438 0-6.828126-3.054688-6.828126-6.824219s3.054688-6.828125 6.828126-6.828125h140.890624c3.773438 0 6.828126 3.058594 6.828126 6.828125s-3.054688 6.824219-6.828126 6.824219zm0 0" fill="#006DF0"/><path d="m148.375 211.625h-141.546875c-3.773437 0-6.828125-3.054688-6.828125-6.824219s3.054688-6.828125 6.828125-6.828125h141.546875c3.773438 0 6.824219 3.058594 6.824219 6.828125s-3.054688 6.824219-6.824219 6.824219zm0 0" fill="#006DF0"/><path d="m197.972656 402.773438c-3.773437 0-6.824218-3.058594-6.824218-6.828126v-139.980468c0-3.769532 3.050781-6.824219 6.824218-6.824219 3.773438 0 6.828125 3.054687 6.828125 6.824219v139.980468c0 3.769532-3.054687 6.828126-6.828125 6.828126zm0 0" fill="#006DF0"/><path d="m197.972656 162.460938c-3.773437 0-6.824218-3.054688-6.824218-6.824219v-148.808594c0-3.773437 3.050781-6.828125 6.824218-6.828125 3.773438 0 6.828125 3.054688 6.828125 6.828125v148.808594c0 3.769531-3.054687 6.824219-6.828125 6.824219zm0 0" fill="#006DF0"/><path d="m202.195312 262.789062c-30.542968 0-55.386718-24.84375-55.386718-55.382812 0-14.664062 5.671875-28.480469 15.972656-38.914062 10.488281-10.625 24.480469-16.472657 39.414062-16.472657 30.542969 0 55.390626 24.847657 55.390626 55.386719s-24.847657 55.382812-55.390626 55.382812zm0-97.121093c-11.253906 0-21.796874 4.410156-29.695312 12.414062v.003907c-7.765625 7.859374-12.039062 18.273437-12.039062 29.316406 0 23.011718 18.71875 41.734375 41.734374 41.734375 23.011719 0 41.738282-18.722657 41.738282-41.734375 0-23.011719-18.726563-41.734375-41.738282-41.734375zm-34.554687 7.621093h.066406zm0 0" fill="#006DF0"/></svg>
