<?xml version="1.0" encoding="iso-8859-1"?>
<!-- Generator: Adobe Illustrator 19.0.0, SVG Export Plug-In . SVG Version: 6.00 Build 0)  -->
<svg xmlns="http://www.w3.org/2000/svg" xmlns:xlink="http://www.w3.org/1999/xlink" version="1.1" id="Capa_1" x="0px" y="0px" viewBox="0 0 512 512" style="enable-background:new 0 0 512 512;" xml:space="preserve" width="512px" height="512px">
<g>
	<g>
		<path d="M509.555,376.149c-7.765-23.087-34.933-45.887-74.538-62.556c-3.815-1.604-8.214,0.186-9.822,4.004    c-1.606,3.817,0.186,8.215,4.004,9.822c35.116,14.779,59.841,34.783,66.14,53.512c2.876,8.552,1.987,16.673-2.719,24.825    c-41.39,71.697-65.011,76.354-73.25,75.056c-10.04-1.607-18.147-14.811-22.828-37.182    c-14.347-68.562-54.064-102.655-69.759-113.757c4.056-6.081,7.251-12.778,9.417-19.922c16.855-2.129,39.774,0.444,63.898,7.276    c0.684,0.194,1.371,0.286,2.048,0.286c3.27,0,6.277-2.156,7.211-5.458c1.129-3.985-1.186-8.132-5.172-9.26    c-24.171-6.845-46.794-9.663-65.043-8.221c0.183-2.141,0.298-4.302,0.298-6.49c0-34.809-23.685-64.176-55.779-72.87    c1.275-15.261,9.239-64.427,58.775-108.756c15.559-13.922,32.491-34.746,24.793-54.896C358.215,27.966,319.313,16,251.602,16    c-15.507,0-28.489,6.738-37.542,19.485c-22.698,31.96-17.717,97.003-1.066,144.737c1.365,3.911,5.642,5.974,9.551,4.61    c3.911-1.364,5.975-5.641,4.611-9.552c-20.108-57.64-15.455-110.571-0.868-131.11C232.582,35.308,240.862,31,251.602,31    c82.779,0,98.64,18.125,101.618,25.917c3.629,9.5-3.752,23.125-20.784,38.364c-52.368,46.863-61.922,98.483-63.643,117.478    c-1.604-0.102-3.217-0.172-4.847-0.172c-5.845,0-11.529,0.69-16.995,1.953c-2.374-3.116-4.71-6.651-6.972-10.575    c-2.07-3.59-6.656-4.819-10.243-2.75c-3.588,2.069-4.819,6.656-2.75,10.244c1.673,2.9,3.395,5.626,5.151,8.181    c-25.773,12.027-43.685,38.178-43.685,68.447c0,6.649,0.873,13.098,2.494,19.245c-14.038,6.582-60.488,24.069-123.4,3.402    c-19.836-6.516-46.331-10.769-59.932,5.972c-15.929,19.606-6.839,59.285,27.018,117.931c8.802,15.249,23.08,22.97,41.269,22.97    c13.207,0,28.477-4.072,45.203-12.29c3.718-1.826,5.251-6.32,3.424-10.038c-1.826-3.719-6.319-5.249-10.038-3.425    c-15.51,7.62-29.683,11.35-41.003,10.757c-11.744-0.604-20.204-5.666-25.865-15.473c-41.393-71.702-33.627-94.502-28.367-100.976    c6.413-7.892,21.9-8.31,43.609-1.18c23.824,7.827,45.44,10.627,64.188,10.626c33.621-0.001,57.984-9.006,69.19-14.169    c3.291,6.655,7.536,12.753,12.553,18.125c-10.02,23.842-36.126,53.572-66.573,75.455c-3.364,2.417-4.131,7.103-1.713,10.467    c1.465,2.039,3.764,3.124,6.096,3.124c1.516,0,3.046-0.459,4.37-1.411c31.151-22.388,57.39-51.758,69.631-77.352    c12.277,8.642,27.221,13.738,43.341,13.738c20.774,0,39.614-8.436,53.278-22.062c12.733,8.88,51.077,40.37,64.638,105.179    c4.275,20.436,13.843,45.513,35.138,48.921c1.573,0.251,3.16,0.377,4.771,0.377c23.941-0.004,52.118-27.797,83.838-82.745    C512.496,401.325,513.824,388.84,509.555,376.149z M263.946,348.585c-33.358,0-60.496-27.14-60.496-60.499    s27.138-60.499,60.496-60.499c33.357,0,60.496,27.14,60.496,60.499S297.303,348.585,263.946,348.585z" fill="#006DF0"/>
	</g>
</g>
<g>
	<g>
		<path d="M263.946,242.586c-25.087,0-45.497,20.411-45.497,45.5s20.41,45.5,45.497,45.5c25.087,0,45.497-20.411,45.497-45.5    S289.033,242.586,263.946,242.586z M263.946,318.585c-16.817,0-30.498-13.682-30.498-30.5c0-16.817,13.681-30.5,30.498-30.5    c16.816,0,30.498,13.682,30.498,30.5C294.444,304.902,280.762,318.585,263.946,318.585z" fill="#006DF0"/>
	</g>
</g>
<g>
</g>
<g>
</g>
<g>
</g>
<g>
</g>
<g>
</g>
<g>
</g>
<g>
</g>
<g>
</g>
<g>
</g>
<g>
</g>
<g>
</g>
<g>
</g>
<g>
</g>
<g>
</g>
<g>
</g>
</svg>
